<svg viewBox="0 0 1440 490" version="1.1" xmlns="http://www.w3.org/2000/svg"><defs><linearGradient id="sw-gradient-0" x1="0" x2="0" y1="1" y2="0"><stop stop-color="rgba(5, 116, 187, 1)" offset="0%"/><stop stop-color="rgba(5, 116, 187, 1)" offset="100%"/></linearGradient></defs><path style="transform:translate(0, 0px); opacity:1" fill="url(#sw-gradient-0)" d="M0,441L80,392C160,343,320,245,480,236.8C640,229,800,310,960,302.2C1120,294,1280,196,1440,130.7C1600,65,1760,33,1920,89.8C2080,147,2240,294,2400,310.3C2560,327,2720,212,2880,212.3C3040,212,3200,327,3360,310.3C3520,294,3680,147,3840,138.8C4000,131,4160,261,4320,261.3C4480,261,4640,131,4800,98C4960,65,5120,131,5280,155.2C5440,180,5600,163,5760,196C5920,229,6080,310,6240,302.2C6400,294,6560,196,6720,196C6880,196,7040,294,7200,277.7C7360,261,7520,131,7680,130.7C7840,131,8000,261,8160,277.7C8320,294,8480,196,8640,179.7C8800,163,8960,229,9120,220.5C9280,212,9440,131,9600,138.8C9760,147,9920,245,10080,269.5C10240,294,10400,245,10560,245C10720,245,10880,294,11040,334.8C11200,376,11360,408,11440,424.7L11520,441L11520,490L11440,490C11360,490,11200,490,11040,490C10880,490,10720,490,10560,490C10400,490,10240,490,10080,490C9920,490,9760,490,9600,490C9440,490,9280,490,9120,490C8960,490,8800,490,8640,490C8480,490,8320,490,8160,490C8000,490,7840,490,7680,490C7520,490,7360,490,7200,490C7040,490,6880,490,6720,490C6560,490,6400,490,6240,490C6080,490,5920,490,5760,490C5600,490,5440,490,5280,490C5120,490,4960,490,4800,490C4640,490,4480,490,4320,490C4160,490,4000,490,3840,490C3680,490,3520,490,3360,490C3200,490,3040,490,2880,490C2720,490,2560,490,2400,490C2240,490,2080,490,1920,490C1760,490,1600,490,1440,490C1280,490,1120,490,960,490C800,490,640,490,480,490C320,490,160,490,80,490L0,490Z"/></svg>